<svg width="40" height="40" viewBox="0 0 40 40" fill="none" xmlns="http://www.w3.org/2000/svg">
<path d="M28 16C28 18.1217 27.1571 20.1566 25.6569 21.6569C24.1566 23.1571 22.1217 24 20 24C17.8783 24 15.8434 23.1571 14.3431 21.6569C12.8429 20.1566 12 18.1217 12 16C12 13.8783 12.8429 11.8434 14.3431 10.3431C15.8434 8.84285 17.8783 8 20 8C22.1217 8 24.1566 8.84285 25.6569 10.3431C27.1571 11.8434 28 13.8783 28 16Z" fill="white"/>
<path fill-rule="evenodd" clip-rule="evenodd" d="M19.184 39.984C8.517 39.556 0 30.772 0 20C0 8.954 8.954 0 20 0C31.046 0 40 8.954 40 20C40 31.046 31.046 40 20 40C19.9087 40.0006 19.8173 40.0006 19.726 40C19.545 40 19.364 39.994 19.184 39.984ZM7.166 32.62C7.01646 32.1906 6.96557 31.733 7.01708 31.2812C7.0686 30.8294 7.22121 30.395 7.46358 30.0103C7.70595 29.6255 8.03186 29.3003 8.41712 29.0588C8.80238 28.8172 9.2371 28.6655 9.689 28.615C17.485 27.752 22.563 27.83 30.321 28.633C30.7735 28.6801 31.2093 28.8299 31.5952 29.0709C31.9811 29.3119 32.3068 29.6378 32.5477 30.0237C32.7886 30.4096 32.9383 30.8455 32.9853 31.298C33.0323 31.7505 32.9754 32.2078 32.819 32.635C36.1439 29.2709 38.006 24.7299 38 20C38 10.059 29.941 2 20 2C10.059 2 2 10.059 2 20C2 24.916 3.971 29.372 7.166 32.62Z" fill="white"/>
</svg>
