<svg width="50" height="48" viewBox="0 0 50 48" fill="none" xmlns="http://www.w3.org/2000/svg">
<path d="M50 24.8028C50 11.1116 38.8 0 25 0C11.2 0 0 11.1116 0 24.8028C0 33.5482 4.56421 41.2273 11.4502 45.6442C15.4867 48.2334 20 44.6275 20 39.8319V34.7436C20 33.3629 18.8807 32.2436 17.5 32.2436C16.1193 32.2436 15 31.1243 15 29.7436V27.3028C15 25.9221 16.1193 24.8028 17.5 24.8028C18.8807 24.8028 20 23.6835 20 22.3028V18.6021C20 13.8151 23.925 9.92111 28.75 9.92111H31.2796C33.3343 9.92111 35 11.5868 35 13.6415C35 15.6962 33.3343 17.3619 31.2796 17.3619H30C28.625 17.3619 27.5 18.4781 27.5 19.8422V21.0528C27.5 23.1238 29.1938 24.8028 31.2649 24.8028C33.3196 24.8028 35 26.4685 35 28.5232C35 30.5779 33.3196 32.2436 31.2649 32.2436C29.1938 32.2436 27.5 33.9225 27.5 35.9936V40.4403C27.5 45.2838 31.8056 49.1582 36.1468 47.01C44.3561 42.9479 50 34.5345 50 24.8028Z" fill="#67B7E5"/>
</svg>
