<svg width="51" height="50" viewBox="0 0 51 50" fill="none" xmlns="http://www.w3.org/2000/svg">
<path d="M33.2088 24.7408C33.2088 26.7913 32.3857 28.7578 30.9205 30.2077C29.4554 31.6577 27.4683 32.4722 25.3963 32.4722C23.3243 32.4722 21.3371 31.6577 19.872 30.2077C18.4069 28.7578 17.5838 26.7913 17.5838 24.7408V24.7408C17.5838 24.0683 17.087 23.4522 16.4145 23.4522H16.2146C15.5326 23.4522 14.9796 24.0051 14.9796 24.6872V33.7531C14.9796 34.4695 15.5655 35.0494 16.2895 35.0494H34.5056C34.8526 35.0487 35.1851 34.9118 35.4302 34.6688C35.6753 34.4258 35.8129 34.0964 35.8129 33.7531V24.6872C35.8129 24.0051 35.26 23.4522 34.5779 23.4522H34.378C33.7055 23.4522 33.2088 24.0683 33.2088 24.7408V24.7408ZM25.3963 29.8951C26.0804 29.8949 26.7578 29.7614 27.3898 29.5021C28.0218 29.2429 28.596 28.863 29.0797 28.3841C29.5633 27.9053 29.9469 27.3368 30.2085 26.7112C30.4702 26.0857 30.6048 25.4152 30.6046 24.7382C30.6044 24.0611 30.4695 23.3908 30.2075 22.7653C29.9456 22.1399 29.5617 21.5716 29.0778 21.093C28.5939 20.6144 28.0195 20.2347 27.3874 19.9758C26.7553 19.7169 26.0778 19.5837 25.3937 19.5839C24.012 19.5842 22.687 20.1277 21.7103 21.0948C20.7335 22.0619 20.185 23.3734 20.1853 24.7408C20.1857 26.1081 20.7349 27.4193 21.7121 28.3859C22.6894 29.3526 24.0146 29.8954 25.3963 29.8951ZM31.6463 19.3287H34.7687C34.9761 19.3287 35.1751 19.2473 35.322 19.1024C35.4689 18.9575 35.5518 18.7609 35.5525 18.5556V15.4655C35.5525 15.2598 35.4699 15.0625 35.3229 14.917C35.1759 14.7716 34.9766 14.6898 34.7687 14.6898H31.6463C31.4384 14.6898 31.239 14.7716 31.092 14.917C30.945 15.0625 30.8624 15.2598 30.8624 15.4655V18.5556C30.865 18.9808 31.2166 19.3287 31.6463 19.3287ZM25.3963 0C18.7659 0 12.407 2.60661 7.7186 7.2464C3.03019 11.8862 0.396271 18.1791 0.396271 24.7408C0.396271 31.3024 3.03019 37.5953 7.7186 42.2351C12.407 46.8749 18.7659 49.4815 25.3963 49.4815C28.6793 49.4815 31.9302 48.8416 34.9634 47.5982C37.9965 46.3549 40.7525 44.5325 43.0739 42.2351C45.3954 39.9377 47.2369 37.2103 48.4933 34.2086C49.7496 31.2069 50.3963 27.9898 50.3963 24.7408C50.3963 21.4918 49.7496 18.2746 48.4933 15.2729C47.2369 12.2712 45.3954 9.54379 43.0739 7.2464C40.7525 4.94901 37.9965 3.12662 34.9634 1.88328C31.9302 0.639939 28.6793 0 25.3963 0ZM38.4171 34.7633C38.4171 36.338 37.115 37.6266 35.5239 37.6266H15.2687C13.6775 37.6266 12.3754 36.338 12.3754 34.7633V14.7182C12.3754 13.1435 13.6775 11.8549 15.2687 11.8549H35.5239C37.115 11.8549 38.4171 13.1435 38.4171 14.7182V34.7633Z" fill="#67B7E5"/>
</svg>
