<svg width="51" height="50" viewBox="0 0 51 50" fill="none" xmlns="http://www.w3.org/2000/svg">
<path d="M25.6646 0C11.8573 0 0.664551 11.0766 0.664551 24.7408C0.664551 38.4049 11.8573 49.4815 25.6646 49.4815C39.4718 49.4815 50.6646 38.4049 50.6646 24.7408C50.6646 11.0766 39.4718 0 25.6646 0ZM19.5448 32.464C19.5448 33.862 18.4115 34.9953 17.0135 34.9953C15.6155 34.9953 14.4823 33.862 14.4823 32.464V21.4038C14.4823 20.0058 15.6155 18.8726 17.0135 18.8726C18.4115 18.8726 19.5448 20.0058 19.5448 21.4038V32.464ZM16.9823 16.8933C15.3833 16.8933 14.3494 15.7722 14.3494 14.3857C14.3494 12.9709 15.4145 11.8833 17.0474 11.8833C18.6802 11.8833 19.6802 12.9709 19.7114 14.3857C19.7114 15.7722 18.6802 16.8933 16.9823 16.8933ZM38.0343 32.464C38.0343 33.862 36.9011 34.9953 35.5031 34.9953C34.1051 34.9953 32.9718 33.862 32.9718 32.464V26.0603C32.9718 23.9805 32.2375 22.5682 30.4067 22.5682C29.0083 22.5682 28.1776 23.5243 27.8104 24.4444C27.675 24.7717 27.6411 25.2356 27.6411 25.6969V32.4602C27.6411 33.8588 26.5072 34.9927 25.1086 34.9927C23.7099 34.9927 22.576 33.8588 22.576 32.4602V24.014C22.576 23.0083 22.5598 22.0849 22.535 21.232C22.4978 19.9453 23.5198 18.87 24.8071 18.87H25.7159C26.3555 18.87 26.8917 19.3535 26.9575 19.9898L27.0669 21.0468C27.0706 21.0824 27.1006 21.1095 27.1365 21.1095C27.1604 21.1095 27.1824 21.0977 27.1954 21.0776C27.8746 20.027 29.5019 18.5066 32.2062 18.5066C35.5369 18.5066 38.0343 20.7152 38.0343 25.4624V32.464Z" fill="#67B7E5"/>
</svg>
