<svg width="40" height="40" viewBox="0 0 40 40" fill="none" xmlns="http://www.w3.org/2000/svg">
<path d="M33.75 9.37504H28.0984C27.9335 7.34046 27.0088 5.44251 25.5083 4.05867C24.0077 2.67482 22.0412 1.90649 20 1.90649C17.9588 1.90649 15.9923 2.67482 14.4917 4.05867C12.9912 5.44251 12.0665 7.34046 11.9016 9.37504H6.25C5.4212 9.37504 4.62634 9.70428 4.04029 10.2903C3.45424 10.8764 3.125 11.6712 3.125 12.5V31.25C3.125 32.0788 3.45424 32.8737 4.04029 33.4597C4.62634 34.0458 5.4212 34.375 6.25 34.375H33.75C34.5788 34.375 35.3737 34.0458 35.9597 33.4597C36.5458 32.8737 36.875 32.0788 36.875 31.25V12.5C36.875 11.6712 36.5458 10.8764 35.9597 10.2903C35.3737 9.70428 34.5788 9.37504 33.75 9.37504ZM20 5.62504C21.052 5.62514 22.0687 6.00428 22.8638 6.69299C23.659 7.3817 24.1794 8.33387 24.3297 9.37504H15.6703C15.8206 8.33387 16.341 7.3817 17.1362 6.69299C17.9313 6.00428 18.948 5.62514 20 5.62504ZM33.125 30.625H6.875V13.125H11.875V15C11.875 15.4973 12.0725 15.9742 12.4242 16.3259C12.7758 16.6775 13.2527 16.875 13.75 16.875C14.2473 16.875 14.7242 16.6775 15.0758 16.3259C15.4275 15.9742 15.625 15.4973 15.625 15V13.125H24.375V15C24.375 15.4973 24.5725 15.9742 24.9242 16.3259C25.2758 16.6775 25.7527 16.875 26.25 16.875C26.7473 16.875 27.2242 16.6775 27.5758 16.3259C27.9275 15.9742 28.125 15.4973 28.125 15V13.125H33.125V30.625Z" fill="white"/>
</svg>
