<svg width="51" height="50" viewBox="0 0 51 50" fill="none" xmlns="http://www.w3.org/2000/svg">
<path d="M25.5351 0C39.3565 0 50.5351 11.0627 50.5351 24.7408C50.5351 38.4189 39.3565 49.4815 25.5351 49.4815C11.7137 49.4815 0.535095 38.4189 0.535095 24.7408C0.535095 11.0627 11.7137 0 25.5351 0ZM20.9637 37.7827C32.0351 37.7827 38.1065 28.6993 38.1065 20.8176V20.6223C38.1065 20.2567 38.2846 19.9162 38.571 19.6889C39.1815 19.2043 39.7468 18.6614 40.2504 18.0712C40.5276 17.7464 40.1955 17.2854 39.7869 17.4093C39.3351 17.5464 38.9835 16.8366 39.2798 16.469C39.4254 16.2885 39.5602 16.0997 39.6831 15.9034C39.9572 15.4659 39.4693 15.0364 38.9957 15.2418C38.4109 15.4954 37.8055 15.7076 37.183 15.8748C36.739 15.994 36.2779 15.8344 35.9226 15.5427C34.8711 14.6796 33.5221 14.1729 32.0708 14.1729C28.7494 14.1729 26.0351 16.8591 26.0351 20.146C26.0351 20.7998 25.5067 21.4521 24.8583 21.369C21.5107 20.9399 18.455 19.5565 15.9997 17.5014C14.836 16.5274 12.9637 16.7553 12.9637 18.2728C12.9637 19.659 13.4536 20.9482 14.2677 21.9655C14.6154 22.4 14.334 23.0863 13.8115 22.895C13.5239 22.7898 13.249 22.6615 12.9892 22.514C12.962 22.4986 12.928 22.5181 12.928 22.5494C12.928 24.8913 14.2804 26.9101 16.2505 27.8972C16.6137 28.0791 16.5842 28.6286 16.178 28.6286C15.6559 28.6286 15.236 29.1198 15.4891 29.5765C15.7429 30.0345 16.0571 30.4559 16.4204 30.8305C17.5027 31.9466 17.9423 34.3377 16.4443 34.7539C15.393 35.046 14.2852 35.2026 13.1422 35.2026C12.8132 35.2026 12.659 35.6995 12.9501 35.853C15.3241 37.1054 18.0489 37.818 20.928 37.818" fill="#67B7E5"/>
</svg>
